<svg width="29" height="29" viewBox="0 0 29 29" fill="none" xmlns="http://www.w3.org/2000/svg">
<path fill-rule="evenodd" clip-rule="evenodd" d="M20.7526 14.3671C20.7526 13.7743 20.272 13.2937 19.6792 13.2937H3.97512L6.78124 10.8884C7.23135 10.5026 7.28348 9.82497 6.89766 9.37487C6.51187 8.92475 5.83421 8.87263 5.38411 9.25844L0.37485 13.5521C0.136924 13.756 0 14.0538 0 14.3671C0 14.6804 0.136924 14.9782 0.37485 15.182L5.38411 19.4757C5.83421 19.8615 6.51187 19.8094 6.89766 19.3593C7.28348 18.9092 7.23135 18.2315 6.78124 17.8458L3.97512 15.4405H19.6792C20.272 15.4405 20.7526 14.9599 20.7526 14.3671Z" fill="#FF795C"/>
<path d="M10 8.5873C10 9.59229 10 10.0948 10.2412 10.4558C10.3456 10.6121 10.4798 10.7463 10.6361 10.8507C10.9971 11.0919 11.4996 11.0919 12.5046 11.0919H18.5873C20.3657 11.0919 21.8075 12.5336 21.8075 14.3122C21.8075 16.0906 20.3657 17.5324 18.5873 17.5324H12.5046C11.4996 17.5324 10.997 17.5324 10.636 17.7736C10.4798 17.878 10.3456 18.0122 10.2412 18.1684C10 18.5294 10 19.0319 10 20.037C10 24.0851 10 26.1091 11.2576 27.3667C12.5152 28.6243 14.539 28.6243 18.587 28.6243H20.0182C24.0663 28.6243 26.0903 28.6243 27.3479 27.3667C28.6055 26.1091 28.6055 24.0851 28.6055 20.037V8.5873C28.6055 4.53922 28.6055 2.51516 27.3479 1.25758C26.0903 0 24.0663 0 20.0182 0H18.587C14.539 0 12.5152 0 11.2576 1.25758C10 2.51516 10 4.53921 10 8.5873Z" fill="#FF795C"/>
</svg>
