<svg width="35" height="35" viewBox="0 0 35 35" fill="none" xmlns="http://www.w3.org/2000/svg">
<circle cx="17.5" cy="17.5" r="17.5" fill="#E67538"/>
<path d="M19.548 17.5002L23.5018 13.5684C24.0768 12.9966 24.0768 12.1387 23.5018 11.5668C23.2861 11.2809 22.9267 11.0664 22.5672 11.0664C22.2078 11.0664 21.8484 11.2094 21.5608 11.4953L17.5352 15.4986L13.5814 11.5668C13.0064 10.9949 12.0718 10.9949 11.5686 11.5668C11.2811 11.7813 11.0654 12.1387 11.0654 12.5676C11.0654 12.9966 11.2092 13.2825 11.4967 13.5684L15.4505 17.5002L11.4967 21.432C11.2811 21.718 11.0654 22.0754 11.0654 22.5043C11.0654 22.8617 11.2092 23.2192 11.4967 23.5051C11.7843 23.7911 12.1437 23.9341 12.5032 23.9341C12.8626 23.9341 13.222 23.7911 13.5096 23.5051L17.4633 19.5733L21.4171 23.5051C21.9921 24.077 22.9267 24.077 23.4299 23.5051C24.005 22.9332 24.005 22.0039 23.4299 21.5035L19.548 17.5002Z" fill="white"/>
</svg>
