<svg width="21" height="21" viewBox="0 0 21 21" fill="none" xmlns="http://www.w3.org/2000/svg">
<path d="M1.09642 0.0429664C0.660068 -0.102491 0.188418 0.133334 0.0429611 0.569694C-0.102485 1.00605 0.13334 1.4777 0.569689 1.62315L0.863857 1.72121C1.61497 1.97157 2.11156 2.13844 2.4774 2.30863C2.82381 2.46977 2.97359 2.59947 3.06955 2.73262C3.16552 2.86576 3.24119 3.04886 3.28452 3.42845C3.3303 3.82933 3.33155 4.35321 3.33155 5.14496V8.11188C3.33153 9.63048 3.33152 10.8545 3.46095 11.8173C3.59533 12.8168 3.88282 13.6584 4.55121 14.3268C5.2196 14.9951 6.06118 15.2826 7.0607 15.417C8.02342 15.5465 9.24747 15.5465 10.7661 15.5465H18.6002C19.0601 15.5465 19.433 15.1736 19.433 14.7136C19.433 14.2536 19.0601 13.8808 18.6002 13.8808H10.827C9.2331 13.8808 8.12142 13.879 7.28264 13.7662C6.46783 13.6567 6.03635 13.4563 5.72901 13.149C5.46786 12.8879 5.28392 12.537 5.16734 11.9375H16.4037C17.4692 11.9375 18.0018 11.9375 18.419 11.6624C18.8362 11.3873 19.046 10.8977 19.4657 9.91842L19.9416 8.80797C20.8405 6.71057 21.29 5.66186 20.7963 4.91312C20.3026 4.16439 19.1616 4.16439 16.8796 4.16439H4.99173C4.98518 3.82272 4.97083 3.51446 4.93944 3.23952C4.87798 2.70116 4.74406 2.20717 4.42081 1.75868C4.09756 1.3102 3.67127 1.02694 3.17998 0.798379C2.71776 0.583364 2.12998 0.387459 1.43442 0.155632L1.09642 0.0429664Z" fill="white"/>
<path d="M6.94106 17.4922C7.86098 17.4922 8.60672 18.238 8.60672 19.1579C8.60672 20.0777 7.86098 20.8235 6.94106 20.8235C6.02113 20.8235 5.27539 20.0777 5.27539 19.1579C5.27539 18.238 6.02113 17.4922 6.94106 17.4922Z" fill="white"/>
<path d="M16.9342 17.4922C17.8541 17.4922 18.5999 18.2379 18.5999 19.1579C18.5999 20.0777 17.8541 20.8235 16.9342 20.8235C16.0143 20.8235 15.2686 20.0777 15.2686 19.1579C15.2686 18.2379 16.0143 17.4922 16.9342 17.4922Z" fill="white"/>
</svg>
