<svg width="22" height="21" viewBox="0 0 22 21" fill="none" xmlns="http://www.w3.org/2000/svg">
<path fill-rule="evenodd" clip-rule="evenodd" d="M1.09961 15.755V12.6172C1.50912 12.8537 1.96078 13.0264 2.44131 13.122C2.87218 13.2077 3.32881 13.2071 3.70777 13.2066H3.75831C8.58583 13.2027 13.4134 13.2027 18.241 13.2066H18.2915C18.6704 13.2071 19.127 13.2077 19.5579 13.122C20.0384 13.0264 20.49 12.8537 20.8996 12.6172V15.755C20.8996 16.6806 20.8997 17.4781 20.8093 18.1166C20.7122 18.801 20.4937 19.4571 19.933 19.9892C19.3724 20.5212 18.6812 20.7288 17.9602 20.8208C17.2873 20.9067 16.4471 20.9066 15.472 20.9066H6.52719C5.55205 20.9066 4.71186 20.9067 4.03904 20.8208C3.31798 20.7288 2.62679 20.5212 2.06616 19.9892C1.50553 19.4571 1.28692 18.801 1.18998 18.1166C1.09951 17.4781 1.09956 16.6806 1.09961 15.755ZM12.0996 16.5066C12.0996 15.899 11.6071 15.4066 10.9996 15.4066C10.3921 15.4066 9.89959 15.899 9.89959 16.5066V17.6066C9.89959 18.2141 10.3921 18.7066 10.9996 18.7066C11.6071 18.7066 12.0996 18.2141 12.0996 17.6066V16.5066Z" fill="#05D677"/>
<path fill-rule="evenodd" clip-rule="evenodd" d="M4.08208 0.96746C3.0913 1.95824 2.90616 3.28877 3.30418 4.40845C3.07032 4.41403 2.8559 4.42902 2.65627 4.46873C1.3472 4.72911 0.323897 5.75241 0.0635054 7.06146C-0.000569497 7.38359 -0.000283393 7.74421 4.66062e-05 8.16296L0.000101419 8.25522L4.66062e-05 8.34748C-0.000283393 8.76624 -0.000569497 9.12686 0.0635054 9.44894C0.323897 10.758 1.3472 11.7814 2.65627 12.0417C2.97841 12.1058 3.33902 12.1055 3.75778 12.1052C8.5859 12.1014 13.414 12.1014 18.2421 12.1052C18.6609 12.1055 19.0216 12.1058 19.3437 12.0417C20.6528 11.7814 21.6761 10.758 21.9365 9.44894C22.0005 9.12686 22.0003 8.76628 22 8.34754L21.9998 8.25522L22 8.16293C22.0003 7.7442 22.0005 7.38357 21.9365 7.06146C21.6761 5.75241 20.6528 4.72912 19.3437 4.46873C19.144 4.42902 18.9296 4.41403 18.6957 4.40845C19.0937 3.28877 18.9085 1.95824 17.9178 0.96746C16.5283 -0.421936 14.2354 -0.299913 13.0055 1.23743L11 3.74436L8.99435 1.23743C7.76451 -0.299913 5.47148 -0.421936 4.08208 0.96746ZM11 5.50523C10.3924 5.50523 9.89998 5.99772 9.89998 6.60522V8.80522C9.89998 9.41275 10.3924 9.90522 11 9.90522C11.6075 9.90522 12.1 9.41275 12.1 8.80522V6.60522C12.1 5.99772 11.6075 5.50523 11 5.50523ZM6.41122 4.40523C5.43773 4.40523 4.94015 3.22066 5.63771 2.5231C6.10266 2.05815 6.86812 2.1013 7.27648 2.61176L8.71125 4.40523H6.41122ZM15.5886 4.40523C16.5621 4.40523 17.0598 3.22066 16.3621 2.5231C15.8972 2.05815 15.1318 2.1013 14.7234 2.61176L13.2886 4.40523H15.5886Z" fill="#05D677"/>
</svg>
