<svg width="12" height="7" viewBox="0 0 12 7" fill="none" xmlns="http://www.w3.org/2000/svg">
<path d="M11.9199 1.17374C11.8528 1.38805 11.6999 1.5402 11.5461 1.69398C9.85775 3.37906 8.17104 5.06577 6.48597 6.75411C6.27901 6.96106 6.04425 7.05841 5.76122 6.96352C5.6557 6.92834 5.55181 6.858 5.47165 6.77865C3.71868 5.03141 1.96899 3.28171 0.22011 1.53038C-0.0735512 1.2359 -0.0727339 0.855536 0.215201 0.558603C0.350171 0.419544 0.484323 0.27803 0.631562 0.152877C0.880233 -0.0581663 1.22461 -0.0475323 1.47246 0.165147C1.51091 0.197867 1.54608 0.233859 1.58208 0.269033C3.00539 1.69235 4.42952 3.11566 5.85202 4.53979C5.88474 4.57251 5.91173 4.61096 5.99353 4.67313C6.01562 4.63223 6.03034 4.58315 6.06143 4.55125C7.49865 3.11403 8.93587 1.67681 10.3731 0.240403C10.6414 -0.0279003 11.0111 -0.0810702 11.2623 0.139789C11.5183 0.364738 11.7989 0.575781 11.9199 0.917704C11.9199 1.00278 11.9199 1.08785 11.9199 1.17374Z" fill="#FFFDFD"/>
</svg>
