<svg width="26" height="26" viewBox="0 0 26 26" fill="none" xmlns="http://www.w3.org/2000/svg">
<path fill-rule="evenodd" clip-rule="evenodd" d="M0 5.97864C0 2.7393 2.62602 0.113281 5.86536 0.113281C9.10471 0.113281 11.7307 2.7393 11.7307 5.97864C11.7307 9.21799 9.10471 11.844 5.86536 11.844C2.62602 11.844 0 9.21799 0 5.97864Z" fill="#8F8F8F"/>
<path fill-rule="evenodd" clip-rule="evenodd" d="M13.583 19.5646C13.583 16.3252 16.209 13.6992 19.4484 13.6992C22.6878 13.6992 25.3137 16.3252 25.3137 19.5646C25.3137 22.804 22.6878 25.4299 19.4484 25.4299C16.209 25.4299 13.583 22.804 13.583 19.5646Z" fill="#8F8F8F"/>
<path fill-rule="evenodd" clip-rule="evenodd" d="M25.3137 5.97864C25.3137 2.7393 22.6878 0.113281 19.4484 0.113281C16.209 0.113281 13.583 2.7393 13.583 5.97864C13.583 9.21799 16.209 11.844 19.4484 11.844C22.6878 11.844 25.3137 9.21799 25.3137 5.97864Z" fill="#8F8F8F"/>
<path fill-rule="evenodd" clip-rule="evenodd" d="M11.7307 19.5646C11.7307 16.3252 9.10471 13.6992 5.86536 13.6992C2.62602 13.6992 0 16.3252 0 19.5646C0 22.804 2.62602 25.4299 5.86536 25.4299C9.10471 25.4299 11.7307 22.804 11.7307 19.5646Z" fill="#8F8F8F"/>
</svg>
