<svg width="29" height="29" viewBox="0 0 29 29" fill="none" xmlns="http://www.w3.org/2000/svg">
<path fill-rule="evenodd" clip-rule="evenodd" d="M2.09597 26.5283C4.19193 28.6243 7.56534 28.6243 14.3122 28.6243C21.0589 28.6243 24.4324 28.6243 26.5283 26.5283C28.6243 24.4324 28.6243 21.0589 28.6243 14.3122C28.6243 7.56534 28.6243 4.19193 26.5283 2.09597C24.4324 -1.70614e-07 21.0589 0 14.3122 0C7.56534 0 4.19193 -1.70614e-07 2.09597 2.09597C-1.70614e-07 4.19193 0 7.56534 0 14.3122C0 21.0589 -1.70614e-07 24.4324 2.09597 26.5283ZM24.3307 23.9729C24.9235 23.9729 25.4041 23.4923 25.4041 22.8995C25.4041 22.3067 24.9235 21.8261 24.3307 21.8261H4.29365C3.70083 21.8261 3.22024 22.3067 3.22024 22.8995C3.22024 23.4923 3.70083 23.9729 4.29365 23.9729H24.3307ZM25.4041 17.1746C25.4041 17.7674 24.9235 18.248 24.3307 18.248H4.29365C3.70083 18.248 3.22024 17.7674 3.22024 17.1746C3.22024 16.5818 3.70083 16.1012 4.29365 16.1012H24.3307C24.9235 16.1012 25.4041 16.5818 25.4041 17.1746ZM24.3307 12.5231C24.9235 12.5231 25.4041 12.0425 25.4041 11.4497C25.4041 10.8569 24.9235 10.3763 24.3307 10.3763H4.29365C3.70083 10.3763 3.22024 10.8569 3.22024 11.4497C3.22024 12.0425 3.70083 12.5231 4.29365 12.5231H24.3307ZM25.4041 5.72487C25.4041 6.31769 24.9235 6.79828 24.3307 6.79828H4.29365C3.70083 6.79828 3.22024 6.31769 3.22024 5.72487C3.22024 5.13204 3.70083 4.65145 4.29365 4.65145H24.3307C24.9235 4.65145 25.4041 5.13204 25.4041 5.72487Z" fill="#F9C867"/>
</svg>
