<svg width="26" height="29" viewBox="0 0 26 29" fill="none" xmlns="http://www.w3.org/2000/svg">
<path fill-rule="evenodd" clip-rule="evenodd" d="M0 12.0461C0 7.46962 1.27961e-07 5.18141 0.540313 4.4116C1.08061 3.64179 3.23215 2.90531 7.53523 1.43235L8.35505 1.15173C10.5982 0.38391 11.7197 0 12.881 0C14.0422 0 15.1637 0.38391 17.4069 1.15173L18.2267 1.43235C22.5298 2.90531 24.6813 3.64179 25.2216 4.4116C25.7619 5.18141 25.7619 7.46962 25.7619 12.0461V14.2999C25.7619 22.3691 19.695 26.285 15.8885 27.9478C14.856 28.3988 14.3398 28.6243 12.881 28.6243C11.4221 28.6243 10.9059 28.3988 9.87334 27.9478C6.06687 26.285 0 22.3691 0 14.2999V12.0461ZM15.7434 10.0185C15.7434 11.5994 14.4619 12.881 12.881 12.881C11.3 12.881 10.0185 11.5994 10.0185 10.0185C10.0185 8.43764 11.3 7.15609 12.881 7.15609C14.4619 7.15609 15.7434 8.43764 15.7434 10.0185ZM12.881 21.4683C18.6058 21.4683 18.6058 20.1867 18.6058 18.6058C18.6058 17.0249 16.0427 15.7434 12.881 15.7434C9.7192 15.7434 7.15609 17.0249 7.15609 18.6058C7.15609 20.1867 7.15609 21.4683 12.881 21.4683Z" fill="#05D677"/>
</svg>
