<svg width="27" height="29" viewBox="0 0 27 29" fill="none" xmlns="http://www.w3.org/2000/svg">
<path d="M1.54831 2.74523C1.29499 3.25021 1.1704 3.87315 0.92122 5.11905L0.0845778 9.30226C-0.445166 11.951 1.58076 14.4222 4.28195 14.4222C6.48106 14.4222 8.32238 12.7559 8.54119 10.5677L8.63776 9.60201C8.40955 12.1887 10.4484 14.4222 13.0528 14.4222C15.6749 14.4222 17.7238 12.1582 17.4629 9.54914L17.565 10.5677C17.7838 12.7559 19.6251 14.4222 21.8243 14.4222C24.5254 14.4222 26.5514 11.951 26.0217 9.30226L25.1851 5.11905C24.9358 3.87318 24.8112 3.25021 24.5579 2.74523C24.0241 1.68117 23.0636 0.893792 21.9156 0.579058C21.3707 0.429688 20.7354 0.429688 19.4649 0.429688H16.551H6.64131C5.37076 0.429688 4.73547 0.429688 4.19062 0.579058C3.04254 0.893792 2.08208 1.68117 1.54831 2.74523Z" fill="#FF9900"/>
<path d="M21.825 16.5195C22.9684 16.5195 24.0307 16.2223 24.9475 15.7064V17.2191C24.9475 22.496 24.9475 25.1344 23.3081 26.7738C21.9885 28.0934 20.0215 28.3507 16.5519 28.401V23.5158C16.5519 22.208 16.5519 21.5541 16.2707 21.0671C16.0866 20.748 15.8215 20.483 15.5025 20.2989C15.0154 20.0176 14.3616 20.0176 13.0538 20.0176C11.7461 20.0176 11.0922 20.0176 10.6051 20.2989C10.2861 20.483 10.0211 20.748 9.83687 21.0671C9.55568 21.5541 9.55568 22.208 9.55568 23.5158V28.401C6.08613 28.3507 4.1191 28.0934 2.79948 26.7738C1.16016 25.1344 1.16016 22.496 1.16016 17.2191V15.7064C2.077 16.2223 3.13925 16.5195 4.28269 16.5195C5.95769 16.5195 7.49342 15.8708 8.63826 14.8011C9.7959 15.8648 11.3418 16.5195 13.0535 16.5195C14.7654 16.5195 16.3114 15.8646 17.4692 14.8008C18.614 15.8707 20.1499 16.5195 21.825 16.5195Z" fill="#FF9900"/>
</svg>
