<svg width="29" height="29" viewBox="0 0 29 29" fill="none" xmlns="http://www.w3.org/2000/svg">
<path fill-rule="evenodd" clip-rule="evenodd" d="M0.479983 8.40833C-0.293532 10.0218 -0.0220022 11.9089 0.521059 15.6831L0.920039 18.4558C1.61763 23.3041 1.96643 25.7281 3.64821 27.1762C5.32998 28.6243 7.79636 28.6243 12.7291 28.6243H15.8952C20.8279 28.6243 23.2943 28.6243 24.9762 27.1762C26.6578 25.7281 27.0066 23.3041 27.7043 18.4558L28.1032 15.6831C28.6464 11.9089 28.9179 10.0218 28.1443 8.40833C27.3709 6.79485 25.7244 5.81409 22.4316 3.85256L20.4495 2.6719C17.4594 0.890632 15.9642 0 14.3122 0C12.6601 0 11.165 0.890632 8.17475 2.6719L6.19274 3.85256C2.89991 5.81409 1.2535 6.79485 0.479983 8.40833ZM8.94524 22.8992C8.94524 22.3064 9.42583 21.8258 10.0187 21.8258H18.606C19.1988 21.8258 19.6794 22.3064 19.6794 22.8992C19.6794 23.492 19.1988 23.9726 18.606 23.9726H10.0187C9.42583 23.9726 8.94524 23.492 8.94524 22.8992Z" fill="#DEC5FF"/>
</svg>
